HIERARCHY
ROOT Hips
{
  OFFSET 12.547 23.486 -274.629
  CHANNELS 6 Xposition Yposition Zposition Zrotation Xrotation Yrotation
  JOINT LeftUpLeg
  {
    OFFSET 8.111 -7.389 1.947
    CHANNELS 6 Xposition Yposition Zposition Zrotation Xrotation Yrotation
    JOINT LeftLeg
    {
      OFFSET 0.000 -49.998 0.000
      CHANNELS 6 Xposition Yposition Zposition Zrotation Xrotation Yrotation
      JOINT LeftFoot
      {
        OFFSET -0.000 -38.888 -0.000
        CHANNELS 6 Xposition Yposition Zposition Zrotation Xrotation Yrotation
        End Site
        {
          OFFSET 0.000 -9.457 5.460
        }
      }
    }
  }
  JOINT RightUpLeg
  {
    OFFSET -7.458 -7.846 1.619
    CHANNELS 6 Xposition Yposition Zposition Zrotation Xrotation Yrotation
    JOINT RightLeg
    {
      OFFSET -0.000 -47.623 0.000
      CHANNELS 6 Xposition Yposition Zposition Zrotation Xrotation Yrotation
      JOINT RightFoot
      {
        OFFSET 0.000 -42.525 -0.000
        CHANNELS 6 Xposition Yposition Zposition Zrotation Xrotation Yrotation
        End Site
        {
          OFFSET 0.000 -9.166 5.292
        }
      }
    }
  }
  JOINT Spine
  {
    OFFSET 0.000 6.095 -6.095
    CHANNELS 6 Xposition Yposition Zposition Zrotation Xrotation Yrotation
    JOINT LeftShoulder
    {
      OFFSET -0.000 34.615 0.000
      CHANNELS 6 Xposition Yposition Zposition Zrotation Xrotation Yrotation
      JOINT LeftArm
      {
        OFFSET 20.254 0.000 -0.000
        CHANNELS 6 Xposition Yposition Zposition Zrotation Xrotation Yrotation
        JOINT LeftForeArm
        {
          OFFSET 27.812 0.000 0.000
          CHANNELS 6 Xposition Yposition Zposition Zrotation Xrotation Yrotation
          JOINT LeftHand
          {
            OFFSET 26.162 0.000 -0.000
            CHANNELS 6 Xposition Yposition Zposition Zrotation Xrotation Yrotation
            JOINT LeftHandThumb1
            {
            OFFSET 4.970 -0.620 3.390
            CHANNELS 6 Xposition Yposition Zposition Zrotation Xrotation Yrotation
              JOINT LeftHandThumb2
              {
              OFFSET 2.150 -0.000 0.000
              CHANNELS 6 Xposition Yposition Zposition Zrotation Xrotation Yrotation
                JOINT LeftHandThumb3
                {
                OFFSET 2.200 -0.000 0.000
                CHANNELS 6 Xposition Yposition Zposition Zrotation Xrotation Yrotation
                  JOINT LeftHandThumb4
                  {
                  OFFSET 1.700 -0.000 0.000
                  CHANNELS 6 Xposition Yposition Zposition Zrotation Xrotation Yrotation
                  }
                }
              }
            }
            JOINT LeftHandIndex1
            {
            OFFSET 8.730 0.680 2.070
            CHANNELS 6 Xposition Yposition Zposition Zrotation Xrotation Yrotation
              JOINT LeftHandIndex2
              {
              OFFSET 2.670 -0.000 0.000
              CHANNELS 6 Xposition Yposition Zposition Zrotation Xrotation Yrotation
                JOINT LeftHandIndex3
                {
                OFFSET 2.130 -0.000 0.000
                CHANNELS 6 Xposition Yposition Zposition Zrotation Xrotation Yrotation
                  JOINT LeftHandIndex4
                  {
                  OFFSET 1.800 -0.000 0.000
                  CHANNELS 6 Xposition Yposition Zposition Zrotation Xrotation Yrotation
                  }
                }
              }
            }
            JOINT LeftHandMiddle1
            {
            OFFSET 9.220 0.670 0.550
            CHANNELS 6 Xposition Yposition Zposition Zrotation Xrotation Yrotation
              JOINT LeftHandMiddle2
              {
              OFFSET 2.660 -0.000 0.000
              CHANNELS 6 Xposition Yposition Zposition Zrotation Xrotation Yrotation
                JOINT LeftHandMiddle3
                {
                OFFSET 2.280 -0.000 0.000
                CHANNELS 6 Xposition Yposition Zposition Zrotation Xrotation Yrotation
                  JOINT LeftHandMiddle4
                  {
                  OFFSET 1.500 -0.000 0.000
                  CHANNELS 6 Xposition Yposition Zposition Zrotation Xrotation Yrotation
                  }
                }
              }
            }
            JOINT LeftHandRing1
            {
            OFFSET 9.250 0.670 -1.130
            CHANNELS 6 Xposition Yposition Zposition Zrotation Xrotation Yrotation
              JOINT LeftHandRing2
              {
              OFFSET 2.470 -0.000 0.000
              CHANNELS 6 Xposition Yposition Zposition Zrotation Xrotation Yrotation
                JOINT LeftHandRing3
                {
                OFFSET 2.210 -0.000 0.000
                CHANNELS 6 Xposition Yposition Zposition Zrotation Xrotation Yrotation
                  JOINT LeftHandRing4
                  {
                  OFFSET 1.800 -0.000 0.000
                  CHANNELS 6 Xposition Yposition Zposition Zrotation Xrotation Yrotation
                  }
                }
              }
            }
            JOINT LeftHandPinky1
            {
            OFFSET 9.350 0.660 -2.720
            CHANNELS 6 Xposition Yposition Zposition Zrotation Xrotation Yrotation
              JOINT LeftHandPinky2
              {
              OFFSET 1.630 -0.000 0.000
              CHANNELS 6 Xposition Yposition Zposition Zrotation Xrotation Yrotation
                JOINT LeftHandPinky3
                {
                OFFSET 1.710 -0.000 0.000
                CHANNELS 6 Xposition Yposition Zposition Zrotation Xrotation Yrotation
                  JOINT LeftHandPinky4
                  {
                  OFFSET 1.800 -0.000 0.000
                  CHANNELS 6 Xposition Yposition Zposition Zrotation Xrotation Yrotation
                  }
                }
              }
            }
          }
        }
      }
    }
    JOINT RightShoulder
    {
      OFFSET -0.000 34.615 0.000
      CHANNELS 6 Xposition Yposition Zposition Zrotation Xrotation Yrotation
      JOINT RightArm
      {
        OFFSET -19.830 0.000 -0.000
        CHANNELS 6 Xposition Yposition Zposition Zrotation Xrotation Yrotation
        JOINT RightForeArm
        {
          OFFSET -29.454 0.000 0.000
          CHANNELS 6 Xposition Yposition Zposition Zrotation Xrotation Yrotation
          JOINT RightHand
          {
            OFFSET -25.429 0.000 -0.000
            CHANNELS 6 Xposition Yposition Zposition Zrotation Xrotation Yrotation
            JOINT RightHandThumb1
            {
            OFFSET -4.970 -0.620 3.390
            CHANNELS 6 Xposition Yposition Zposition Zrotation Xrotation Yrotation
              JOINT RightHandThumb2
              {
              OFFSET -2.150 0.000 0.000
              CHANNELS 6 Xposition Yposition Zposition Zrotation Xrotation Yrotation
                JOINT RightHandThumb3
                {
                OFFSET -2.200 0.000 0.000
                CHANNELS 6 Xposition Yposition Zposition Zrotation Xrotation Yrotation
                  JOINT RightHandThumb4
                  {
                  OFFSET -1.700 0.000 0.000
                  CHANNELS 6 Xposition Yposition Zposition Zrotation Xrotation Yrotation
                  }
                }
              }
            }
            JOINT RightHandIndex1
            {
            OFFSET -8.730 0.680 2.070
            CHANNELS 6 Xposition Yposition Zposition Zrotation Xrotation Yrotation
              JOINT RightHandIndex2
              {
              OFFSET -2.670 0.000 0.000
              CHANNELS 6 Xposition Yposition Zposition Zrotation Xrotation Yrotation
                JOINT RightHandIndex3
                {
                OFFSET -2.130 0.000 0.000
                CHANNELS 6 Xposition Yposition Zposition Zrotation Xrotation Yrotation
                  JOINT RightHandIndex4
                  {
                  OFFSET -1.800 0.000 0.000
                  CHANNELS 6 Xposition Yposition Zposition Zrotation Xrotation Yrotation
                  }
                }
              }
            }
            JOINT RightHandMiddle1
            {
            OFFSET -9.220 0.670 0.550
            CHANNELS 6 Xposition Yposition Zposition Zrotation Xrotation Yrotation
              JOINT RightHandMiddle2
              {
              OFFSET -2.660 0.000 0.000
              CHANNELS 6 Xposition Yposition Zposition Zrotation Xrotation Yrotation
                JOINT RightHandMiddle3
                {
                OFFSET -2.280 0.000 0.000
                CHANNELS 6 Xposition Yposition Zposition Zrotation Xrotation Yrotation
                  JOINT RightHandMiddle4
                  {
                  OFFSET -1.500 0.000 0.000
                  CHANNELS 6 Xposition Yposition Zposition Zrotation Xrotation Yrotation
                  }
                }
              }
            }
            JOINT RightHandRing1
            {
            OFFSET -9.250 0.670 -1.130
            CHANNELS 6 Xposition Yposition Zposition Zrotation Xrotation Yrotation
              JOINT RightHandRing2
              {
              OFFSET -2.470 0.000 0.000
              CHANNELS 6 Xposition Yposition Zposition Zrotation Xrotation Yrotation
                JOINT RightHandRing3
                {
                OFFSET -2.210 0.000 0.000
                CHANNELS 6 Xposition Yposition Zposition Zrotation Xrotation Yrotation
                  JOINT RightHandRing4
                  {
                  OFFSET -1.800 0.000 0.000
                  CHANNELS 6 Xposition Yposition Zposition Zrotation Xrotation Yrotation
                  }
                }
              }
            }
            JOINT RightHandPinky1
            {
            OFFSET -9.350 0.660 -2.720
            CHANNELS 6 Xposition Yposition Zposition Zrotation Xrotation Yrotation
              JOINT RightHandPinky2
              {
              OFFSET -1.630 0.000 0.000
              CHANNELS 6 Xposition Yposition Zposition Zrotation Xrotation Yrotation
                JOINT RightHandPinky3
                {
                OFFSET -1.710 0.000 0.000
                CHANNELS 6 Xposition Yposition Zposition Zrotation Xrotation Yrotation
                  JOINT RightHandPinky4
                  {
                  OFFSET -1.800 0.000 0.000
                  CHANNELS 6 Xposition Yposition Zposition Zrotation Xrotation Yrotation
                  }
                }
              }
            }
          }
        }
      }
    }
    JOINT Neck
    {
      OFFSET -0.000 34.615 0.000
      CHANNELS 6 Xposition Yposition Zposition Zrotation Xrotation Yrotation
      JOINT Head
      {
        OFFSET -0.000 20.781 -0.000
        CHANNELS 6 Xposition Yposition Zposition Zrotation Xrotation Yrotation
        End Site
        {
          OFFSET -0.000 0.083 -0.000
        }
      }
    }
  }
}
MOTION
Frames:	6
Frame Time:	0.0333333
56.185 23.3468 -275.028 -2.36212 2.10066 -8.2397 7.87958 -7.59844 2.14241 4.94346 5.67247 -3.46982 1.63913e-05 -50.2665 2.38419e-05 -5.38945 -7.18587 -0.676122 7.45058e-07 -37.5404 -2.38419e-05 7.08373 -8.94171 5.17274 -7.71086 -7.69991 1.31884 -0.212568 3.44142 -2.98341 -5.21541e-06 -49.9295 9.53674e-05 6.42951 -3.05281 0.34385 -7.45058e-06 -38.2481 -0.000119209 -1.21546 -9.57224 -0.903366 -4.47035e-06 6.28301 -6.28302 0.146042 -3.4594 -0.0530802 -5.96046e-06 34.6159 7.15256e-05 -28.0148 1.19528e-05 -6.63148 19.7267 4.17233e-05 -7.15256e-05 -49.7422 29.5135 2.30885 28.3428 1.19209e-05 -2.38419e-05 -6.74299e-06 -5.12264e-06 -22.5038 25.0058 -2.38419e-05 4.76837e-05 -5.65345 -9.90377e-05 4.30943 0.0062 0.0497 0.0339 0 0 0 0 0.0215 0 0 0 0 0 0.022 0 0 0 0 0 0.017 0 0 0 0 -0.0068 0.0873 0.0207 0 0 0 0 0.0267 0 0 0 0 0 0.0213 0 0 0 0 0 0.018 0 0 0 0 -0.0067 0.0922 0.0055 0 0 0 0 0.0266 0 0 0 0 0 0.0228 0 0 0 0 0 0.015 0 0 0 0 -0.0067 0.0925 -0.0113 0 0 0 0 0.0247 0 0 0 0 0 0.0221 0 0 0 0 0 0.018 0 0 0 0 -0.0066 0.0935 -0.0272 0 0 0 0 0.0163 0 0 0 0 0 0.0171 0 0 0 0 0 0.018 0 0 0 0 -5.96046e-06 34.6159 7.15256e-05 27.7697 -8.53774e-07 6.67194 -19.6076 0 -7.15256e-05 55.481 11.585 -2.11773 -28.2096 1.19209e-05 4.76837e-05 1.37368e-06 0 21.2064 -25.0376 -1.78814e-05 2.38419e-05 5.74146 -0.00416742 1.93298 -0.0062 0.0497 0.0339 0 0 0 0 0.0215 0 0 0 0 0 0.022 0 0 0 0 0 0.017 0 0 0 0 0.0068 0.0873 0.0207 0 0 0 0 0.0267 0 0 0 0 0 0.0213 0 0 0 0 0 0.018 0 0 0 0 0.0067 0.0922 0.0055 0 0 0 0 0.0266 0 0 0 0 0 0.0228 0 0 0 0 0 0.015 0 0 0 0 0.0067 0.0925 -0.0113 0 0 0 0 0.0247 0 0 0 0 0 0.0221 0 0 0 0 0 0.018 0 0 0 0 0.0066 0.0935 -0.0272 0 0 0 0 0.0163 0 0 0 0 0 0.0171 0 0 0 0 0 0.018 0 0 0 0 -5.96046e-06 34.6159 7.15256e-05 3.32778 10.4361 -0.603447 2.98023e-06 21.8845 -7.15256e-05 1.05655e-05 -9.39151e-06 1.70755e-06 
56.185 23.3468 -275.028 -2.36212 2.10066 -8.2397 7.87958 -7.59844 2.14241 4.94346 5.67247 -3.46982 1.63913e-05 -50.2665 2.38419e-05 -5.38945 -7.18587 -0.676122 7.45058e-07 -37.5404 -2.38419e-05 7.08373 -8.94171 5.17274 -7.71086 -7.69991 1.31884 -0.212568 3.44142 -2.98341 -5.21541e-06 -49.9295 9.53674e-05 6.42951 -3.05281 0.34385 -7.45058e-06 -38.2481 -0.000119209 -1.21546 -9.57224 -0.903366 -4.47035e-06 6.28301 -6.28302 0.146042 -3.4594 -0.0530802 -5.96046e-06 34.6159 7.15256e-05 -28.0148 1.19528e-05 -6.63148 19.7267 4.17233e-05 -7.15256e-05 -49.7422 29.5135 2.30885 28.3428 1.19209e-05 -2.38419e-05 -6.74299e-06 -5.12264e-06 -22.5038 25.0058 -2.38419e-05 4.76837e-05 -5.65345 -9.90377e-05 4.30943 0.0062 0.0497 0.0339 0 0 0 0 0.0215 0 0 0 0 0 0.022 0 0 0 0 0 0.017 0 0 0 0 -0.0068 0.0873 0.0207 0 0 0 0 0.0267 0 0 0 0 0 0.0213 0 0 0 0 0 0.018 0 0 0 0 -0.0067 0.0922 0.0055 0 0 0 0 0.0266 0 0 0 0 0 0.0228 0 0 0 0 0 0.015 0 0 0 0 -0.0067 0.0925 -0.0113 0 0 0 0 0.0247 0 0 0 0 0 0.0221 0 0 0 0 0 0.018 0 0 0 0 -0.0066 0.0935 -0.0272 0 0 0 0 0.0163 0 0 0 0 0 0.0171 0 0 0 0 0 0.018 0 0 0 0 -5.96046e-06 34.6159 7.15256e-05 27.7697 -8.53774e-07 6.67194 -19.6076 0 -7.15256e-05 55.481 11.585 -2.11773 -28.2096 1.19209e-05 4.76837e-05 1.37368e-06 0 21.2064 -25.0376 -1.78814e-05 2.38419e-05 5.74146 -0.00416742 1.93298 -0.0062 0.0497 0.0339 0 0 0 0 0.0215 0 0 0 0 0 0.022 0 0 0 0 0 0.017 0 0 0 0 0.0068 0.0873 0.0207 0 0 0 0 0.0267 0 0 0 0 0 0.0213 0 0 0 0 0 0.018 0 0 0 0 0.0067 0.0922 0.0055 0 0 0 0 0.0266 0 0 0 0 0 0.0228 0 0 0 0 0 0.015 0 0 0 0 0.0067 0.0925 -0.0113 0 0 0 0 0.0247 0 0 0 0 0 0.0221 0 0 0 0 0 0.018 0 0 0 0 0.0066 0.0935 -0.0272 0 0 0 0 0.0163 0 0 0 0 0 0.0171 0 0 0 0 0 0.018 0 0 0 0 -5.96046e-06 34.6159 7.15256e-05 3.32778 10.4361 -0.603447 2.98023e-06 21.8845 -7.15256e-05 1.05655e-05 -9.39151e-06 1.70755e-06 
56.1906 23.3447 -275.021 -2.38398 2.09213 -8.2274 7.87935 -7.59763 2.14214 4.95787 5.68907 -3.46839 7.45058e-06 -50.2867 0 -5.39344 -7.23457 -0.681187 -4.47035e-06 -37.5696 4.76837e-05 7.05133 -8.92977 5.14737 -7.71185 -7.69921 1.31972 -0.199952 3.44838 -2.97994 -8.9407e-06 -49.9313 0 6.44517 -3.01683 0.340643 2.98023e-06 -38.2344 -2.38419e-05 -1.10858 -9.55196 -0.82578 1.49012e-06 6.28293 -6.2829 0.142617 -3.45906 -0.0497042 -2.98023e-06 34.6159 -2.38419e-05 -28.0133 1.32335e-05 -6.63882 19.7181 -1.78814e-05 -7.15256e-05 -49.7465 29.507 2.30504 28.3344 3.57628e-05 7.15256e-05 -6.03891e-06 -3.41509e-06 -22.5362 25.0065 1.19209e-05 2.38419e-05 -5.57977 7.68396e-05 4.23409 0.0062 0.0497 0.0339 0 0 0 0 0.0215 0 0 0 0 0 0.022 0 0 0 0 0 0.017 0 0 0 0 -0.0068 0.0873 0.0207 0 0 0 0 0.0267 0 0 0 0 0 0.0213 0 0 0 0 0 0.018 0 0 0 0 -0.0067 0.0922 0.0055 0 0 0 0 0.0266 0 0 0 0 0 0.0228 0 0 0 0 0 0.015 0 0 0 0 -0.0067 0.0925 -0.0113 0 0 0 0 0.0247 0 0 0 0 0 0.0221 0 0 0 0 0 0.018 0 0 0 0 -0.0066 0.0935 -0.0272 0 0 0 0 0.0163 0 0 0 0 0 0.0171 0 0 0 0 0 0.018 0 0 0 0 -2.98023e-06 34.6159 -2.38419e-05 27.7588 -2.98821e-06 6.67402 -19.6145 0 0 55.4911 11.6866 -2.1419 -28.213 5.96046e-06 0 4.72948e-06 2.56132e-06 21.2372 -25.0373 -5.96046e-06 0 5.68005 -0.00393432 1.87431 -0.0062 0.0497 0.0339 0 0 0 0 0.0215 0 0 0 0 0 0.022 0 0 0 0 0 0.017 0 0 0 0 0.0068 0.0873 0.0207 0 0 0 0 0.0267 0 0 0 0 0 0.0213 0 0 0 0 0 0.018 0 0 0 0 0.0067 0.0922 0.0055 0 0 0 0 0.0266 0 0 0 0 0 0.0228 0 0 0 0 0 0.015 0 0 0 0 0.0067 0.0925 -0.0113 0 0 0 0 0.0247 0 0 0 0 0 0.0221 0 0 0 0 0 0.018 0 0 0 0 0.0066 0.0935 -0.0272 0 0 0 0 0.0163 0 0 0 0 0 0.0171 0 0 0 0 0 0.018 0 0 0 0 -2.98023e-06 34.6159 -2.38419e-05 3.32101 10.4709 -0.604201 -1.49012e-05 21.8977 -2.38419e-05 1.0352e-05 -1.19528e-05 1.70755e-06 
56.1987 23.3418 -275.012 -2.42183 2.08153 -8.16951 7.87957 -7.59589 2.14474 4.9886 5.70212 -3.48647 7.45058e-06 -50.2982 -2.38419e-05 -5.36986 -7.27864 -0.6823 -1.19209e-05 -37.5875 2.38419e-05 7.01701 -8.86099 5.11419 -7.7126 -7.70014 1.31812 -0.17022 3.46738 -2.99583 3.72529e-06 -49.9436 -7.15256e-05 6.45817 -2.99205 0.338529 0 -38.2119 7.15256e-05 -0.974055 -9.58846 -0.727753 -1.93715e-05 6.28244 -6.2824 0.139066 -3.45555 -0.0446037 1.19209e-05 34.616 7.15256e-05 -28.0031 1.17394e-05 -6.62247 19.7148 2.98023e-05 -7.15256e-05 -49.7421 29.5261 2.22414 28.3204 -3.57628e-05 0 -4.18753e-06 -3.4151e-06 -22.5066 25.0073 0 0 -5.44942 0.000336387 4.10988 0.0062 0.0497 0.0339 0 0 0 0 0.0215 0 0 0 0 0 0.022 0 0 0 0 0 0.017 0 0 0 0 -0.0068 0.0873 0.0207 0 0 0 0 0.0267 0 0 0 0 0 0.0213 0 0 0 0 0 0.018 0 0 0 0 -0.0067 0.0922 0.0055 0 0 0 0 0.0266 0 0 0 0 0 0.0228 0 0 0 0 0 0.015 0 0 0 0 -0.0067 0.0925 -0.0113 0 0 0 0 0.0247 0 0 0 0 0 0.0221 0 0 0 0 0 0.018 0 0 0 0 -0.0066 0.0935 -0.0272 0 0 0 0 0.0163 0 0 0 0 0 0.0171 0 0 0 0 0 0.018 0 0 0 0 1.19209e-05 34.616 7.15256e-05 27.7503 -2.13443e-06 6.65382 -19.6224 -1.19209e-05 0 55.4943 11.8484 -2.15984 -28.2133 0 2.38419e-05 5.03833e-06 0 21.2502 -25.0361 -1.78814e-05 2.38419e-05 5.61165 -0.00343995 1.80983 -0.0062 0.0497 0.0339 0 0 0 0 0.0215 0 0 0 0 0 0.022 0 0 0 0 0 0.017 0 0 0 0 0.0068 0.0873 0.0207 0 0 0 0 0.0267 0 0 0 0 0 0.0213 0 0 0 0 0 0.018 0 0 0 0 0.0067 0.0922 0.0055 0 0 0 0 0.0266 0 0 0 0 0 0.0228 0 0 0 0 0 0.015 0 0 0 0 0.0067 0.0925 -0.0113 0 0 0 0 0.0247 0 0 0 0 0 0.0221 0 0 0 0 0 0.018 0 0 0 0 0.0066 0.0935 -0.0272 0 0 0 0 0.0163 0 0 0 0 0 0.0171 0 0 0 0 0 0.018 0 0 0 0 1.19209e-05 34.616 7.15256e-05 3.28455 10.5507 -0.602054 0 21.8813 4.76837e-05 1.0352e-05 -8.53774e-06 -3.4151e-06 
56.2059 23.3397 -275.004 -2.45 2.07219 -8.1264 7.87974 -7.5945 2.14553 5.00325 5.7128 -3.49199 1.93715e-05 -50.291 4.76837e-05 -5.34062 -7.27801 -0.678505 -2.01166e-05 -37.584 0 7.0226 -8.91303 5.12354 -7.71404 -7.70137 1.31772 -0.148632 3.46471 -3.00079 -8.9407e-06 -49.9434 4.76837e-05 6.46363 -2.92922 0.331715 1.56462e-05 -38.2036 2.38419e-05 -0.816675 -9.64734 -0.613671 -8.9407e-06 6.28201 -6.28204 0.130443 -3.45174 -0.0291435 -2.98023e-06 34.616 2.38419e-05 -27.9837 1.10991e-05 -6.60076 19.705 1.19209e-05 7.15256e-05 -49.7292 29.6248 2.13603 28.3069 -2.38419e-05 -9.53674e-05 -3.09415e-06 -1.19528e-05 -22.4626 25.0075 3.57628e-05 2.38419e-05 -5.31153 0.000513972 3.99289 0.0062 0.0497 0.0339 0 0 0 0 0.0215 0 0 0 0 0 0.022 0 0 0 0 0 0.017 0 0 0 0 -0.0068 0.0873 0.0207 0 0 0 0 0.0267 0 0 0 0 0 0.0213 0 0 0 0 0 0.018 0 0 0 0 -0.0067 0.0922 0.0055 0 0 0 0 0.0266 0 0 0 0 0 0.0228 0 0 0 0 0 0.015 0 0 0 0 -0.0067 0.0925 -0.0113 0 0 0 0 0.0247 0 0 0 0 0 0.0221 0 0 0 0 0 0.018 0 0 0 0 -0.0066 0.0935 -0.0272 0 0 0 0 0.0163 0 0 0 0 0 0.0171 0 0 0 0 0 0.018 0 0 0 0 -2.98023e-06 34.616 2.38419e-05 27.746 -1.70755e-06 6.62372 -19.637 0 4.76837e-05 55.5146 11.8809 -2.14551 -28.2193 0 2.38419e-05 1.14485e-06 0 21.2218 -25.035 1.19209e-05 0 5.56187 -0.00284142 1.77633 -0.0062 0.0497 0.0339 0 0 0 0 0.0215 0 0 0 0 0 0.022 0 0 0 0 0 0.017 0 0 0 0 0.0068 0.0873 0.0207 0 0 0 0 0.0267 0 0 0 0 0 0.0213 0 0 0 0 0 0.018 0 0 0 0 0.0067 0.0922 0.0055 0 0 0 0 0.0266 0 0 0 0 0 0.0228 0 0 0 0 0 0.015 0 0 0 0 0.0067 0.0925 -0.0113 0 0 0 0 0.0247 0 0 0 0 0 0.0221 0 0 0 0 0 0.018 0 0 0 0 0.0066 0.0935 -0.0272 0 0 0 0 0.0163 0 0 0 0 0 0.0171 0 0 0 0 0 0.018 0 0 0 0 -2.98023e-06 34.616 2.38419e-05 3.27743 10.6114 -0.604162 -2.83122e-05 21.8672 0 9.8184e-06 -1.10991e-05 -8.53774e-07 
56.2113 23.3359 -274.998 -2.48184 2.06568 -8.09937 7.87996 -7.59222 2.14562 5.02642 5.72861 -3.49412 1.3411e-05 -50.2849 2.38419e-05 -5.30538 -7.28348 -0.674506 -2.98023e-06 -37.5345 -2.38419e-05 7.03574 -8.99429 5.14167 -7.71396 -7.70226 1.31783 -0.134201 3.43687 -3.00104 1.04308e-05 -49.9161 0 6.4851 -2.7994 0.31808 -1.19209e-05 -38.1991 -2.38419e-05 -0.638565 -9.73306 -0.484776 2.98023e-06 6.28179 -6.28183 0.130779 -3.45013 -0.0254904 -5.96046e-06 34.616 2.38419e-05 -28.0055 1.23797e-05 -6.60417 19.6938 -1.19209e-05 2.38419e-05 -49.6904 29.678 2.11964 28.2872 -5.96046e-05 -2.38419e-05 -1.36021e-06 3.41509e-06 -22.4511 25.0076 3.57628e-05 0 -5.17399 0.000630085 3.88374 0.0062 0.0497 0.0339 0 0 0 0 0.0215 0 0 0 0 0 0.022 0 0 0 0 0 0.017 0 0 0 0 -0.0068 0.0873 0.0207 0 0 0 0 0.0267 0 0 0 0 0 0.0213 0 0 0 0 0 0.018 0 0 0 0 -0.0067 0.0922 0.0055 0 0 0 0 0.0266 0 0 0 0 0 0.0228 0 0 0 0 0 0.015 0 0 0 0 -0.0067 0.0925 -0.0113 0 0 0 0 0.0247 0 0 0 0 0 0.0221 0 0 0 0 0 0.018 0 0 0 0 -0.0066 0.0935 -0.0272 0 0 0 0 0.0163 0 0 0 0 0 0.0171 0 0 0 0 0 0.018 0 0 0 0 -5.96046e-06 34.616 2.38419e-05 27.7376 -2.98821e-06 6.61895 -19.65 -2.38419e-05 -2.38419e-05 55.5492 11.8446 -2.14051 -28.2154 -1.19209e-05 -2.38419e-05 -6.61752e-07 1.70755e-06 21.1836 -25.0338 1.78814e-05 0 5.52801 -0.00230011 1.76476 -0.0062 0.0497 0.0339 0 0 0 0 0.0215 0 0 0 0 0 0.022 0 0 0 0 0 0.017 0 0 0 0 0.0068 0.0873 0.0207 0 0 0 0 0.0267 0 0 0 0 0 0.0213 0 0 0 0 0 0.018 0 0 0 0 0.0067 0.0922 0.0055 0 0 0 0 0.0266 0 0 0 0 0 0.0228 0 0 0 0 0 0.015 0 0 0 0 0.0067 0.0925 -0.0113 0 0 0 0 0.0247 0 0 0 0 0 0.0221 0 0 0 0 0 0.018 0 0 0 0 0.0066 0.0935 -0.0272 0 0 0 0 0.0163 0 0 0 0 0 0.0171 0 0 0 0 0 0.018 0 0 0 0 -5.96046e-06 34.616 2.38419e-05 3.27715 10.6604 -0.606869 -1.04308e-05 21.8563 -2.38419e-05 9.92512e-06 -1.28066e-05 -8.53774e-07 
